<mxfile host="app.diagrams.net" agent="Mozilla/5.0 (Windows NT 10.0; Win64; x64; rv:135.0) Gecko/20100101 Firefox/135.0" version="24.9.1">
  <diagram name="Stránka-1" id="ANxnp5V-Et5JiFklmYNx">
    <mxGraphModel dx="662" dy="1553" grid="1" gridSize="10" guides="1" tooltips="1" connect="1" arrows="1" fold="1" page="1" pageScale="1" pageWidth="827" pageHeight="1169" math="0" shadow="0">
      <root>
        <mxCell id="0" />
        <mxCell id="1" parent="0" />
        <mxCell id="ovMC8eiY4_NIdsbzDghb-4" value="" style="edgeStyle=orthogonalEdgeStyle;rounded=0;orthogonalLoop=1;jettySize=auto;html=1;" edge="1" parent="1" source="ovMC8eiY4_NIdsbzDghb-2" target="ovMC8eiY4_NIdsbzDghb-3">
          <mxGeometry relative="1" as="geometry" />
        </mxCell>
        <mxCell id="ovMC8eiY4_NIdsbzDghb-2" value="Otevření stránky" style="rounded=1;whiteSpace=wrap;html=1;" vertex="1" parent="1">
          <mxGeometry x="70" y="40" width="120" height="60" as="geometry" />
        </mxCell>
        <mxCell id="ovMC8eiY4_NIdsbzDghb-6" value="" style="edgeStyle=orthogonalEdgeStyle;rounded=0;orthogonalLoop=1;jettySize=auto;html=1;" edge="1" parent="1" source="ovMC8eiY4_NIdsbzDghb-3" target="ovMC8eiY4_NIdsbzDghb-5">
          <mxGeometry relative="1" as="geometry" />
        </mxCell>
        <mxCell id="ovMC8eiY4_NIdsbzDghb-3" value="Úvodní strana" style="whiteSpace=wrap;html=1;rounded=1;" vertex="1" parent="1">
          <mxGeometry x="70" y="180" width="120" height="60" as="geometry" />
        </mxCell>
        <mxCell id="ovMC8eiY4_NIdsbzDghb-8" value="" style="edgeStyle=orthogonalEdgeStyle;rounded=0;orthogonalLoop=1;jettySize=auto;html=1;" edge="1" parent="1" source="ovMC8eiY4_NIdsbzDghb-5" target="ovMC8eiY4_NIdsbzDghb-7">
          <mxGeometry relative="1" as="geometry" />
        </mxCell>
        <mxCell id="ovMC8eiY4_NIdsbzDghb-5" value="stránka s produkty" style="whiteSpace=wrap;html=1;rounded=1;" vertex="1" parent="1">
          <mxGeometry x="70" y="320" width="120" height="60" as="geometry" />
        </mxCell>
        <mxCell id="ovMC8eiY4_NIdsbzDghb-10" value="" style="edgeStyle=orthogonalEdgeStyle;rounded=0;orthogonalLoop=1;jettySize=auto;html=1;" edge="1" parent="1" source="ovMC8eiY4_NIdsbzDghb-7" target="ovMC8eiY4_NIdsbzDghb-9">
          <mxGeometry relative="1" as="geometry" />
        </mxCell>
        <mxCell id="ovMC8eiY4_NIdsbzDghb-14" value="" style="edgeStyle=orthogonalEdgeStyle;rounded=0;orthogonalLoop=1;jettySize=auto;html=1;" edge="1" parent="1" source="ovMC8eiY4_NIdsbzDghb-7" target="ovMC8eiY4_NIdsbzDghb-13">
          <mxGeometry relative="1" as="geometry" />
        </mxCell>
        <mxCell id="ovMC8eiY4_NIdsbzDghb-7" value="Přidat produkt do košíku" style="rhombus;whiteSpace=wrap;html=1;rounded=1;" vertex="1" parent="1">
          <mxGeometry x="290" y="310" width="80" height="80" as="geometry" />
        </mxCell>
        <mxCell id="ovMC8eiY4_NIdsbzDghb-12" value="" style="edgeStyle=orthogonalEdgeStyle;rounded=0;orthogonalLoop=1;jettySize=auto;html=1;" edge="1" parent="1" source="ovMC8eiY4_NIdsbzDghb-9" target="ovMC8eiY4_NIdsbzDghb-11">
          <mxGeometry relative="1" as="geometry" />
        </mxCell>
        <mxCell id="ovMC8eiY4_NIdsbzDghb-9" value="Vybrat množství" style="rhombus;whiteSpace=wrap;html=1;rounded=1;" vertex="1" parent="1">
          <mxGeometry x="290" y="150" width="80" height="80" as="geometry" />
        </mxCell>
        <mxCell id="ovMC8eiY4_NIdsbzDghb-18" value="" style="edgeStyle=orthogonalEdgeStyle;rounded=0;orthogonalLoop=1;jettySize=auto;html=1;" edge="1" parent="1" source="ovMC8eiY4_NIdsbzDghb-11" target="ovMC8eiY4_NIdsbzDghb-17">
          <mxGeometry relative="1" as="geometry">
            <Array as="points">
              <mxPoint x="410" y="30" />
              <mxPoint x="410" y="30" />
            </Array>
          </mxGeometry>
        </mxCell>
        <mxCell id="ovMC8eiY4_NIdsbzDghb-11" value="Zadání faktturačních informací" style="rhombus;whiteSpace=wrap;html=1;rounded=1;" vertex="1" parent="1">
          <mxGeometry x="290" y="-10" width="80" height="80" as="geometry" />
        </mxCell>
        <mxCell id="ovMC8eiY4_NIdsbzDghb-16" value="" style="edgeStyle=orthogonalEdgeStyle;rounded=0;orthogonalLoop=1;jettySize=auto;html=1;" edge="1" parent="1" source="ovMC8eiY4_NIdsbzDghb-13" target="ovMC8eiY4_NIdsbzDghb-15">
          <mxGeometry relative="1" as="geometry" />
        </mxCell>
        <mxCell id="ovMC8eiY4_NIdsbzDghb-13" value="Odebrat produkt z kočíku" style="rhombus;whiteSpace=wrap;html=1;rounded=1;" vertex="1" parent="1">
          <mxGeometry x="290" y="470" width="80" height="80" as="geometry" />
        </mxCell>
        <mxCell id="ovMC8eiY4_NIdsbzDghb-15" value="" style="shape=waypoint;sketch=0;size=6;pointerEvents=1;points=[];fillColor=default;resizable=0;rotatable=0;perimeter=centerPerimeter;snapToPoint=1;rounded=1;" vertex="1" parent="1">
          <mxGeometry x="120" y="370" width="20" height="20" as="geometry" />
        </mxCell>
        <mxCell id="ovMC8eiY4_NIdsbzDghb-28" value="" style="edgeStyle=orthogonalEdgeStyle;rounded=0;orthogonalLoop=1;jettySize=auto;html=1;" edge="1" parent="1" source="ovMC8eiY4_NIdsbzDghb-17" target="ovMC8eiY4_NIdsbzDghb-27">
          <mxGeometry relative="1" as="geometry" />
        </mxCell>
        <mxCell id="ovMC8eiY4_NIdsbzDghb-17" value="Možnost založení účtu" style="rhombus;whiteSpace=wrap;html=1;rounded=1;" vertex="1" parent="1">
          <mxGeometry x="450" y="-10" width="80" height="80" as="geometry" />
        </mxCell>
        <mxCell id="ovMC8eiY4_NIdsbzDghb-20" value="" style="endArrow=none;html=1;rounded=0;" edge="1" parent="1">
          <mxGeometry width="50" height="50" relative="1" as="geometry">
            <mxPoint x="400" y="130" as="sourcePoint" />
            <mxPoint x="400" y="30" as="targetPoint" />
          </mxGeometry>
        </mxCell>
        <mxCell id="ovMC8eiY4_NIdsbzDghb-26" value="" style="edgeStyle=orthogonalEdgeStyle;rounded=0;orthogonalLoop=1;jettySize=auto;html=1;" edge="1" parent="1" source="ovMC8eiY4_NIdsbzDghb-22" target="ovMC8eiY4_NIdsbzDghb-25">
          <mxGeometry relative="1" as="geometry" />
        </mxCell>
        <mxCell id="ovMC8eiY4_NIdsbzDghb-22" value="Přihlášení" style="rhombus;whiteSpace=wrap;html=1;rounded=1;" vertex="1" parent="1">
          <mxGeometry x="360" y="120" width="80" height="80" as="geometry" />
        </mxCell>
        <mxCell id="ovMC8eiY4_NIdsbzDghb-30" value="" style="edgeStyle=orthogonalEdgeStyle;rounded=0;orthogonalLoop=1;jettySize=auto;html=1;" edge="1" parent="1" source="ovMC8eiY4_NIdsbzDghb-25" target="ovMC8eiY4_NIdsbzDghb-29">
          <mxGeometry relative="1" as="geometry" />
        </mxCell>
        <mxCell id="ovMC8eiY4_NIdsbzDghb-25" value="Zaplacení" style="rhombus;whiteSpace=wrap;html=1;rounded=1;" vertex="1" parent="1">
          <mxGeometry x="520" y="120" width="80" height="80" as="geometry" />
        </mxCell>
        <mxCell id="ovMC8eiY4_NIdsbzDghb-27" value="" style="shape=waypoint;sketch=0;size=6;pointerEvents=1;points=[];fillColor=default;resizable=0;rotatable=0;perimeter=centerPerimeter;snapToPoint=1;rounded=1;" vertex="1" parent="1">
          <mxGeometry x="550" y="110" width="20" height="20" as="geometry" />
        </mxCell>
        <mxCell id="ovMC8eiY4_NIdsbzDghb-32" value="" style="edgeStyle=orthogonalEdgeStyle;rounded=0;orthogonalLoop=1;jettySize=auto;html=1;" edge="1" parent="1" source="ovMC8eiY4_NIdsbzDghb-29" target="ovMC8eiY4_NIdsbzDghb-31">
          <mxGeometry relative="1" as="geometry" />
        </mxCell>
        <mxCell id="ovMC8eiY4_NIdsbzDghb-29" value="Potvrzení o objednávce" style="rhombus;whiteSpace=wrap;html=1;rounded=1;" vertex="1" parent="1">
          <mxGeometry x="680" y="120" width="80" height="80" as="geometry" />
        </mxCell>
        <mxCell id="ovMC8eiY4_NIdsbzDghb-31" value="E-mailová faktura" style="rhombus;whiteSpace=wrap;html=1;rounded=1;" vertex="1" parent="1">
          <mxGeometry x="840" y="120" width="80" height="80" as="geometry" />
        </mxCell>
      </root>
    </mxGraphModel>
  </diagram>
</mxfile>
